<svg width="125" height="38" viewBox="0 0 125 38" fill="none" xmlns="http://www.w3.org/2000/svg">
<path d="M31.5217 21.4617V18.5777H25.0326V18.5703H21.6777V21.4617H31.5217Z" fill="white"/>
<path d="M24.7751 25.2615H24.2675V25.2578H21.6777V28.1749H31.5217V25.2615H24.7751Z" fill="white"/>
<path d="M21.6777 12.332V15.2492H24.8229V15.2455H31.5217V12.332H21.6777Z" fill="white"/>
<path d="M6.55859 28.1795V12.332H12.7607C16.7557 12.332 19.0732 14.186 19.0732 17.4747C19.0732 19.6157 17.7489 21.3152 15.4976 22.0656L19.5809 28.1795H15.5859L12.0103 22.5733H9.91348V28.1795H6.55859ZM9.91348 19.8143H12.6062C14.6368 19.8143 15.7183 19.0197 15.7183 17.4747C15.7183 15.9076 14.6368 15.1131 12.6062 15.1131H9.91348V19.8143Z" fill="white"/>
<path d="M42.8457 28.1795H39.1818L33.4873 12.332H37.1071L41.1241 24.2728L45.2294 12.332H48.5843L42.8457 28.1795Z" fill="white"/>
<path d="M48.6045 20.2366C48.6045 15.4912 52.136 12.0039 56.7048 12.0039C61.2957 12.0039 64.8492 15.4912 64.8492 20.2366C64.8492 24.982 61.2957 28.5135 56.7048 28.5135C52.136 28.5135 48.6045 24.982 48.6045 20.2366ZM61.384 20.2366C61.384 17.3232 59.6182 15.0056 56.7048 15.0056C53.8134 15.0056 52.0477 17.3232 52.0477 20.2366C52.0477 23.1501 53.8134 25.5117 56.7048 25.5117C59.6182 25.5117 61.384 23.1501 61.384 20.2366Z" fill="white"/>
<path d="M67.168 28.1795V12.332H70.5229V25.1557H77.4092V28.1795H67.168Z" fill="white"/>
<path d="M79.7041 28.1795V12.332H83.059V28.1795H79.7041Z" fill="white"/>
<path d="M89.3496 17.6513V28.1795H86.3037V12.332H90.3207L94.9117 24.0741L99.5246 12.332H103.542V28.1795H100.496V17.563L96.3022 28.1795H93.4991L89.3496 17.6513Z" fill="white"/>
<path d="M109.931 15.2602V15.2455H116.63V12.332H106.786V15.2602H109.931Z" fill="white"/>
<path d="M116.63 18.6094H106.786V21.4529H116.63V18.6094Z" fill="white"/>
<path d="M109.884 25.2578H106.786V28.1749H116.63V25.2615H109.884V25.2578Z" fill="white"/>
</svg>
