<svg width="645" height="26" viewBox="0 0 645 26" fill="none" xmlns="http://www.w3.org/2000/svg">
<path d="M3 10.0008C71.0173 12.6896 81.8078 11.5141 150.03 11.6212C265.968 11.8032 381.82 11.4543 497.509 8.88675C525.114 8.27409 575.383 6.87921 604.675 5.84848C617.196 5.4079 630.701 5.7514 642.021 4.02552C647.137 3.24543 630.814 3.34598 625.134 3.21531C589.158 2.38764 553.065 2 516.994 2C379.88 2 243.764 7.49461 109.599 16.0773C105.096 16.3654 100.027 16.2324 96.1224 16.9888C94.8075 17.2436 97.4142 18.0008 98.8827 18.1535C123.945 20.7588 172.556 21.9279 191.76 22.4071C297.818 25.0531 402.961 24.0768 508.875 21.8501" stroke="#A1FF29" stroke-width="4" stroke-linecap="square"/>
</svg>
